<svg xmlns="http://www.w3.org/2000/svg" width="256" height="256" viewBox="0 0 256 256">
  <rect width="256" height="256" rx="56" fill="#141412"/>
  <rect x="1.5" y="1.5" width="253" height="253" rx="54.5" fill="none" stroke="#ffffff" stroke-opacity="0.10" stroke-width="3"/>
  <line x1="128.0" y1="60.0" x2="128.0" y2="38.0" stroke="#edebe4" stroke-opacity="1" stroke-width="9" stroke-linecap="round"/><line x1="166.0" y1="62.2" x2="173.0" y2="50.1" stroke="#edebe4" stroke-opacity="0.55" stroke-width="6" stroke-linecap="round"/><line x1="193.8" y1="90.0" x2="205.9" y2="83.0" stroke="#edebe4" stroke-opacity="0.55" stroke-width="6" stroke-linecap="round"/><line x1="196.0" y1="128.0" x2="218.0" y2="128.0" stroke="#edebe4" stroke-opacity="1" stroke-width="9" stroke-linecap="round"/><line x1="193.8" y1="166.0" x2="205.9" y2="173.0" stroke="#edebe4" stroke-opacity="0.55" stroke-width="6" stroke-linecap="round"/><line x1="166.0" y1="193.8" x2="173.0" y2="205.9" stroke="#edebe4" stroke-opacity="0.55" stroke-width="6" stroke-linecap="round"/><line x1="128.0" y1="196.0" x2="128.0" y2="218.0" stroke="#edebe4" stroke-opacity="1" stroke-width="9" stroke-linecap="round"/><line x1="90.0" y1="193.8" x2="83.0" y2="205.9" stroke="#edebe4" stroke-opacity="0.55" stroke-width="6" stroke-linecap="round"/><line x1="62.2" y1="166.0" x2="50.1" y2="173.0" stroke="#edebe4" stroke-opacity="0.55" stroke-width="6" stroke-linecap="round"/><line x1="60.0" y1="128.0" x2="38.0" y2="128.0" stroke="#edebe4" stroke-opacity="1" stroke-width="9" stroke-linecap="round"/><line x1="62.2" y1="90.0" x2="50.1" y2="83.0" stroke="#edebe4" stroke-opacity="0.55" stroke-width="6" stroke-linecap="round"/><line x1="90.0" y1="62.2" x2="83.0" y2="50.1" stroke="#edebe4" stroke-opacity="0.55" stroke-width="6" stroke-linecap="round"/>
  <path d="M128 128 L128 70 A58 58 0 0 1 165.3 172.4 Z" fill="#ff6b1a"/>
  <line x1="128" y1="128" x2="169.1" y2="177.0" stroke="#edebe4" stroke-width="9" stroke-linecap="round"/>
  <circle cx="128" cy="128" r="12" fill="#edebe4"/>
  <circle cx="128" cy="128" r="4.5" fill="#141412"/>
</svg>
